<svg xmlns="http://www.w3.org/2000/svg" viewBox="0 0 420 520"><g transform="translate(420 0) scale(-1 1)"><defs><radialGradient id="p" cx="45%" cy="45%" r="70%"><stop offset="0" stop-color="#fffdf8"/><stop offset=".55" stop-color="#f2e5d3"/><stop offset="1" stop-color="#c99d62"/></radialGradient><linearGradient id="l" x1="0" y1="0" x2="1" y2="1"><stop stop-color="#8b6b43"/><stop offset="1" stop-color="#d9bd8b"/></linearGradient></defs><g opacity=".95" fill="none" stroke="url(#l)" stroke-width="2.1" stroke-linecap="round"><path d="M42 508C80 382 133 282 232 156"/><path d="M70 416c55-28 92-64 122-124"/><path d="M122 318c65-10 112-42 154-105"/><path d="M177 247c57-4 102-32 142-82"/></g><g fill="url(#p)" stroke="#cda76d" stroke-width="1.1" opacity=".92"><ellipse cx="110" cy="374" rx="30" ry="72" transform="rotate(-52 110 374)"/><ellipse cx="152" cy="333" rx="25" ry="62" transform="rotate(42 152 333)"/><ellipse cx="198" cy="272" rx="27" ry="70" transform="rotate(-50 198 272)"/><ellipse cx="245" cy="215" rx="23" ry="58" transform="rotate(45 245 215)"/><ellipse cx="296" cy="162" rx="22" ry="54" transform="rotate(-45 296 162)"/></g><g transform="translate(54 120) scale(1.45)"><g fill="url(#p)" stroke="#c9a06a" stroke-width=".9"><ellipse cx="76" cy="80" rx="25" ry="66" transform="rotate(8 76 80)"/><ellipse cx="76" cy="80" rx="25" ry="66" transform="rotate(60 76 80)"/><ellipse cx="76" cy="80" rx="25" ry="66" transform="rotate(112 76 80)"/><ellipse cx="76" cy="80" rx="25" ry="66" transform="rotate(164 76 80)"/><ellipse cx="76" cy="80" rx="25" ry="66" transform="rotate(216 76 80)"/><ellipse cx="76" cy="80" rx="25" ry="66" transform="rotate(268 76 80)"/></g><circle cx="76" cy="80" r="15" fill="#b88645"/><circle cx="76" cy="80" r="7" fill="#f5dfb5"/></g><g opacity=".5" fill="#c9934c"><circle cx="46" cy="166" r="3"/><circle cx="79" cy="104" r="4"/><circle cx="145" cy="73" r="3"/><circle cx="238" cy="101" r="3"/><circle cx="300" cy="224" r="4"/><circle cx="30" cy="266" r="3"/></g></g></svg>
